<svg xmlns="http://www.w3.org/2000/svg" width="37.975" height="67.014" viewBox="0 0 37.975 67.014"><defs><style>.a{fill:#fff;}</style></defs><path class="a" d="M124.468,34.234A2.234,2.234,0,1,1,122.234,32,2.234,2.234,0,0,1,124.468,34.234Zm0,0" transform="translate(-103.246 -27.532)"/><path class="a" d="M111.818,160h-6.7A1.117,1.117,0,0,0,104,161.117v6.7a1.117,1.117,0,0,0,1.117,1.117h6.7a1.117,1.117,0,0,0,1.117-1.117v-6.7A1.117,1.117,0,0,0,111.818,160Zm-1.117,6.7h-4.468v-4.468H110.7Zm0,0" transform="translate(-89.48 -137.662)"/><path class="a" d="M0,56.962V65.9a1.117,1.117,0,0,0,1.117,1.117H36.858A1.117,1.117,0,0,0,37.975,65.9V56.962a1.117,1.117,0,0,0-1.117-1.117H28.294l-6.907-5.18A4.445,4.445,0,0,0,20.1,42.6V40.208h2.234a1.116,1.116,0,0,0,1.005-.618l1.919-3.85h1.543a1.117,1.117,0,0,0,1.117-1.117V18.987a1.117,1.117,0,0,0-1.117-1.117H25.689V6.7a6.7,6.7,0,0,0-13.4,0V17.87H11.169a1.117,1.117,0,0,0-1.117,1.117V34.624a1.117,1.117,0,0,0,1.117,1.117h1.543l1.925,3.85a1.117,1.117,0,0,0,1,.618H17.87v4.468h1.117a2.234,2.234,0,1,1-2.234,2.234H14.52a4.455,4.455,0,0,0,2.067,3.755L9.68,55.845H1.117A1.117,1.117,0,0,0,0,56.962Zm29.039,1.117h6.7v6.7h-6.7ZM18.987,2.234A4.468,4.468,0,1,1,14.52,6.7,4.468,4.468,0,0,1,18.987,2.234ZM14.52,11.683a6.662,6.662,0,0,0,8.935,0V17.87H14.52ZM12.286,33.507V20.1h13.4v13.4Zm4.041,4.468L15.21,35.741h7.554l-1.117,2.234Zm2.66,13.682,5.585,4.188H13.4Zm-7.818,6.422H26.806v6.7H11.169Zm-8.935,0h6.7v6.7h-6.7Zm0,0" transform="translate(0 0)"/><path class="a" d="M32,432h2.234v2.234H32Zm0,0" transform="translate(-27.532 -371.687)"/><path class="a" d="M224,432h2.234v2.234H224Zm0,0" transform="translate(-192.727 -371.687)"/><path class="a" d="M96,432h2.234v2.234H96Zm0,0" transform="translate(-82.597 -371.687)"/><path class="a" d="M128,432h2.234v2.234H128Zm0,0" transform="translate(-110.13 -371.687)"/><path class="a" d="M160,432h2.234v2.234H160Zm0,0" transform="translate(-137.662 -371.687)"/><path class="a" d="M48,280h2.234v10.052H48Zm0,0" transform="translate(-41.299 -240.908)"/><path class="a" d="M16,256h2.234v10.052H16Zm0,0" transform="translate(-13.766 -220.259)"/><path class="a" d="M216,280h2.234v10.052H216Zm0,0" transform="translate(-185.844 -240.908)"/><path class="a" d="M248,264h2.234v10.052H248Zm0,0" transform="translate(-213.376 -227.142)"/></svg>