<svg xmlns="http://www.w3.org/2000/svg" width="53.582" height="53.578" viewBox="0 0 53.582 53.578"><defs><style>.a{fill:#fff;}</style></defs><g transform="translate(15.986 40.169)"><path class="a" d="M154.822,384.7a1.093,1.093,0,0,0-.06-.2,1.062,1.062,0,0,0-.1-.18,1.017,1.017,0,0,0-.289-.289,1.035,1.035,0,0,0-.181-.1.987.987,0,0,0-.2-.06,1.03,1.03,0,0,0-.408,0,1.017,1.017,0,0,0-.2.06,1.064,1.064,0,0,0-.18.1,1.046,1.046,0,0,0-.385.469,1.014,1.014,0,0,0-.06.2,1,1,0,0,0,0,.408.985.985,0,0,0,.06.2.966.966,0,0,0,.1.181,1.017,1.017,0,0,0,.289.289,1.06,1.06,0,0,0,.18.1,1.026,1.026,0,0,0,.6.06.991.991,0,0,0,.2-.06,1.037,1.037,0,0,0,.181-.1,1.016,1.016,0,0,0,.289-.289,1.034,1.034,0,0,0,.1-.181,1.06,1.06,0,0,0,.06-.2,1.006,1.006,0,0,0,0-.408Z" transform="translate(-152.75 -383.857)"/></g><g transform="translate(0 32.432)"><path class="a" d="M48.14,318.824l-.013-.031c-.963-2.254-3.222-3.087-5.9-2.174l-7.291,2.016a4.78,4.78,0,0,0-2.96-2.915l-.028-.01-8.014-2.72a8.266,8.266,0,0,0-6.669-3.069c-2.734,0-5.153,1.876-6.536,3.92H1.047A1.046,1.046,0,0,0,0,314.889v13.194a1.046,1.046,0,0,0,1.047,1.047H7.269a1.046,1.046,0,0,0,1.047-1.047v-.9h2.918a1.047,1.047,0,0,0,1.047-1.047v-.3A7.42,7.42,0,0,1,16.1,327.2a63.324,63.324,0,0,0,6.287,3.21l.046.019a9.394,9.394,0,0,0,3.367.635,8.342,8.342,0,0,0,3.467-.742l16.116-5.77c.029-.01.057-.022.085-.035C47.011,323.812,49.306,321.815,48.14,318.824ZM6.222,327.036H2.093v-11.1H6.222Zm3.965-1.95H8.315v-9.151h1.872ZM44.634,322.6l-16.108,5.768-.047.018-.042.018a6.783,6.783,0,0,1-5.212.089,60.621,60.621,0,0,1-6.076-3.1,9.42,9.42,0,0,0-4.868-1.656v-8.429c.992-1.626,2.916-3.29,4.99-3.29a6.039,6.039,0,0,1,5.123,2.407,1.046,1.046,0,0,0,.555.443l8.317,2.823a2.348,2.348,0,0,1,1.708,2.771,2.039,2.039,0,0,1-2.505,1.407l-9.376-2.971a1.047,1.047,0,0,0-.632,2l9.393,2.976.03.009a4.108,4.108,0,0,0,3.141-.365,4.1,4.1,0,0,0,1.963-2.479q.036-.127.064-.254l7.858-2.177c1.135-.388,2.625-.527,3.288,1C46.882,321.393,45.1,322.38,44.634,322.6Z" transform="translate(0 -309.922)"/></g><g transform="translate(35.504 12.922)"><path class="a" d="M341.323,124.34a1.017,1.017,0,0,0-.061-.2.989.989,0,0,0-.1-.18,1.016,1.016,0,0,0-.289-.289,1.063,1.063,0,0,0-.18-.1,1.042,1.042,0,0,0-.6-.06.983.983,0,0,0-.2.06,1.033,1.033,0,0,0-.181.1,1.018,1.018,0,0,0-.289.289,1.06,1.06,0,0,0-.1.18,1.014,1.014,0,0,0-.06.2,1,1,0,0,0,0,.408.982.982,0,0,0,.06.2,1.032,1.032,0,0,0,.1.181,1.018,1.018,0,0,0,.289.289,1.033,1.033,0,0,0,.181.1,1.057,1.057,0,0,0,.2.06,1.031,1.031,0,0,0,.2.021,1.049,1.049,0,0,0,.205-.021,1.108,1.108,0,0,0,.2-.06,1.063,1.063,0,0,0,.18-.1,1.017,1.017,0,0,0,.289-.289.967.967,0,0,0,.1-.181.985.985,0,0,0,.061-.2,1.056,1.056,0,0,0,0-.408Z" transform="translate(-339.25 -123.498)"/></g><g transform="translate(3.107)"><path class="a" d="M79.119,3.568H72.9A1.047,1.047,0,0,0,71.85,4.614v.9H68.932a1.047,1.047,0,0,0-1.047,1.047v.3a7.42,7.42,0,0,1-3.823-1.372,63.327,63.327,0,0,0-6.287-3.21l-.046-.019a8.9,8.9,0,0,0-6.834.107L46.685,3.879,43.135.33a1.047,1.047,0,0,0-1.48,0L30,11.984a1.038,1.038,0,0,0,0,1.48L49.915,33.378a1.131,1.131,0,0,0,1.48,0l10.64-10.639c.277.024.564.037.861.037,2.734,0,5.153-1.876,6.536-3.92h9.687a1.047,1.047,0,0,0,1.047-1.047V4.614A1.047,1.047,0,0,0,79.119,3.568ZM42.4,2.55,44.78,4.935a4.563,4.563,0,0,1-4.771,0ZM34.607,15.109l-2.385-2.385,2.385-2.385a4.563,4.563,0,0,1,0,4.771ZM50.655,31.158l-2.385-2.385a4.556,4.556,0,0,1,4.77,0Zm3.893-3.892a6.65,6.65,0,0,0-7.785,0L36.114,16.617a6.651,6.651,0,0,0,0-7.786L38.5,6.443a6.651,6.651,0,0,0,7.786,0l2.264,2.264a4.148,4.148,0,0,0-3.114,2.282A5.965,5.965,0,1,0,52.3,18.372l3.534,1.2a6.682,6.682,0,0,0,1.109,5.3ZM48.185,16.977l.028.01,2.093.71a3.873,3.873,0,1,1-5.256-4.423A4.633,4.633,0,0,0,48.185,16.977Zm10.261,6.391a4.577,4.577,0,0,1-.669-2.176,8.137,8.137,0,0,0,1.846,1Zm9.44-5.976c-.992,1.626-2.916,3.29-4.99,3.29a7.617,7.617,0,0,1-1.092-.077h0a5.994,5.994,0,0,1-3.877-2.121c-.021-.031-.112-.15-.126-.17a1.043,1.043,0,0,0-.577-.48L48.9,15.009a2.348,2.348,0,0,1-1.708-2.769v0a2.039,2.039,0,0,1,2.5-1.4L59.074,13.8a1.047,1.047,0,0,0,.632-2L52.25,9.444l-.065-.065,0,0L48.322,5.516,51.64,4.328l.036-.014.011,0,.042-.018A6.782,6.782,0,0,1,56.941,4.2a60.623,60.623,0,0,1,6.076,3.1,9.418,9.418,0,0,0,4.868,1.656Zm3.965-.629H69.979V7.611H71.85Zm6.222,0H73.944V5.661h4.129Z" transform="translate(-29.691 -0.023)"/></g></svg>