<svg xmlns="http://www.w3.org/2000/svg" width="60" height="53.906" viewBox="0 0 60 53.906"><defs><style>.a{fill:#fff;}</style></defs><path class="a" d="M99.032,242.693a3.912,3.912,0,0,0-3.907-3.907H92.566a1.172,1.172,0,0,0-1.172,1.172v9.66a1.172,1.172,0,0,0,2.344,0V246.6h.582l2.08,3.6a1.172,1.172,0,0,0,2.03-1.172l-1.624-2.812A3.911,3.911,0,0,0,99.032,242.693Zm-5.294-1.564h1.387a1.564,1.564,0,1,1,0,3.127H93.738Zm0,0" transform="translate(-80.684 -210.803)"/><path class="a" d="M178.681,241.129a1.172,1.172,0,0,0,0-2.344h-5.294a1.172,1.172,0,0,0-1.172,1.172v9.66a1.172,1.172,0,0,0,1.172,1.172h5.294a1.172,1.172,0,1,0,0-2.344h-4.122v-2.486h2.061a1.172,1.172,0,0,0,0-2.344h-2.061v-2.486Zm0,0" transform="translate(-152.034 -210.802)"/><path class="a" d="M260.814,239.957v5.8l-4.32-6.454a1.172,1.172,0,0,0-2.146.652v9.66a1.172,1.172,0,1,0,2.344,0v-5.8l4.32,6.454a1.172,1.172,0,0,0,2.146-.652v-9.66a1.172,1.172,0,1,0-2.343,0Zm0,0" transform="translate(-224.541 -210.802)"/><path class="a" d="M354.239,239.957a1.172,1.172,0,0,0-1.172-1.172H346.6a1.172,1.172,0,0,0,0,2.344h1.859v8.488a1.172,1.172,0,0,0,2.344,0v-8.488h2.264a1.172,1.172,0,0,0,1.172-1.172Zm0,0" transform="translate(-304.949 -210.802)"/><path class="a" d="M56.484,14.063H54.429L34.032,3.357a4.1,4.1,0,0,0-8.065,0L5.569,14.063H3.515A3.519,3.519,0,0,0,0,17.578V50.391a3.519,3.519,0,0,0,3.516,3.516H56.483A3.519,3.519,0,0,0,60,50.391V17.578a3.519,3.519,0,0,0-3.516-3.516ZM30,2.344A1.758,1.758,0,1,1,28.241,4.1,1.76,1.76,0,0,1,30,2.344ZM57.655,50.391a1.173,1.173,0,0,1-1.172,1.172H3.515a1.173,1.173,0,0,1-1.172-1.172V17.578a1.173,1.173,0,0,1,1.172-1.172h7.031a1.171,1.171,0,0,0,.061-2.341L26.284,5.837a4.1,4.1,0,0,0,7.43,0l15.671,8.225H19.921a1.172,1.172,0,0,0,0,2.344H56.484a1.173,1.173,0,0,1,1.172,1.172Zm0,0" transform="translate(0.001)"/><path class="a" d="M89.453,160H41.172A1.172,1.172,0,0,0,40,161.172V189.3a1.172,1.172,0,0,0,1.172,1.172H75.391a1.172,1.172,0,1,0,0-2.344H42.344V162.344H88.281v25.781H84.766a1.172,1.172,0,1,0,0,2.344h4.687a1.172,1.172,0,0,0,1.172-1.172V161.172A1.172,1.172,0,0,0,89.453,160Zm0,0" transform="translate(-35.312 -141.25)"/><path class="a" d="M121.172,122.344a1.172,1.172,0,0,0,0-2.344h0a1.172,1.172,0,0,0,0,2.344Zm0,0" transform="translate(-105.937 -105.938)"/><path class="a" d="M373.172,400h0a1.172,1.172,0,1,0,1.173,1.172A1.171,1.171,0,0,0,373.172,400Zm0,0" transform="translate(-328.406 -353.125)"/></svg>